<svg xmlns:xlink="http://www.w3.org/1999/xlink" width="29.108" xmlns="http://www.w3.org/2000/svg" height="27.043" id="screenshot-bfea2e9c-f9c6-8049-8002-5ef03dcfe1b6" viewBox="-0.02 -0.022 29.108 27.043" style="-webkit-print-color-adjust: exact;" fill="none" version="1.1"><g id="shape-bfea2e9c-f9c6-8049-8002-5ef03dcfe1b6" width="50px" height="50px" rx="0" ry="0" style="fill: rgb(0, 0, 0);"><g id="shape-bfea2e9c-f9c6-8049-8002-5ef03dcfe1bc"><g class="fills" id="fills-bfea2e9c-f9c6-8049-8002-5ef03dcfe1bc"><path rx="0" ry="0" d="M14.552,1.620C7.488,1.609,1.754,6.920,1.744,13.481C1.735,19.437,6.451,24.362,12.605,25.230L12.618,16.646L9.453,16.641L9.458,13.518L12.622,13.523L12.625,11.445C12.631,8.005,14.437,6.497,17.516,6.502C18.990,6.504,19.769,6.607,20.138,6.654L20.134,9.380L18.035,9.376C16.728,9.374,16.270,10.524,16.268,11.822L16.265,13.529L20.095,13.534L19.571,16.656L16.260,16.651L16.248,25.261C22.491,24.484,27.315,19.533,27.324,13.519C27.333,6.958,21.615,1.631,14.552,1.620ZZ" style="fill: rgb(250, 217, 31); fill-opacity: 1;"/></g></g></g></svg>