<svg xmlns:xlink="http://www.w3.org/1999/xlink" width="30.115" xmlns="http://www.w3.org/2000/svg" height="30.045" id="screenshot-bfea2e9c-f9c6-8049-8002-5ef03dcfe1b5" viewBox="-0.022 -0.022 30.115 30.045" style="-webkit-print-color-adjust: exact;" fill="none" version="1.1"><g id="shape-bfea2e9c-f9c6-8049-8002-5ef03dcfe1b5" width="30px" height="30px" rx="0" ry="0" style="fill: rgb(0, 0, 0);"><g id="shape-bfea2e9c-f9c6-8049-8002-5ef03dcfe1ba"><g class="fills" id="fills-bfea2e9c-f9c6-8049-8002-5ef03dcfe1ba"><path rx="0" ry="0" d="M10.039,2.993C6.171,2.987,3.020,6.124,3.014,9.984L3.000,19.984C2.994,23.843,6.138,26.987,10.007,26.993L20.031,27.007C23.899,27.013,27.050,23.876,27.056,20.016L27.071,10.016C27.076,6.157,23.932,3.013,20.063,3.007L10.039,2.993ZZM22.063,7.010C22.617,7.011,23.065,7.460,23.064,8.012C23.063,8.564,22.614,9.011,22.060,9.010C21.507,9.010,21.059,8.561,21.060,8.009C21.060,7.457,21.510,7.010,22.063,7.010ZZM15.044,9.000C18.361,9.005,21.054,11.700,21.049,15.009C21.044,18.318,18.343,21.005,15.026,21.000C11.709,20.995,9.016,18.300,9.021,14.991C9.026,11.682,11.727,8.995,15.044,9.000ZZM15.041,11.000C12.827,10.997,11.029,12.785,11.026,14.994C11.022,17.203,12.815,18.997,15.029,19.000C17.243,19.003,19.041,17.215,19.044,15.006C19.048,12.797,17.255,11.003,15.041,11.000ZZ" style="fill: rgb(234, 128, 168); fill-opacity: 1;"/></g></g></g></svg>