<svg xmlns:xlink="http://www.w3.org/1999/xlink" width="31.114" xmlns="http://www.w3.org/2000/svg" height="28.046" id="screenshot-bfea2e9c-f9c6-8049-8002-5ef03dcfe1b7" viewBox="-0.021 -0.023 31.114 28.046" style="-webkit-print-color-adjust: exact;" fill="none" version="1.1"><g id="shape-bfea2e9c-f9c6-8049-8002-5ef03dcfe1b7" width="50px" height="50px" rx="0" ry="0" style="fill: rgb(0, 0, 0);"><g id="shape-bfea2e9c-f9c6-8049-8002-5ef03dcfe1be"><g class="fills" id="fills-bfea2e9c-f9c6-8049-8002-5ef03dcfe1be"><path rx="0" ry="0" d="M25.497,2.255L5.611,2.225C3.895,2.223,2.502,3.475,2.499,5.021L2.472,22.940C2.470,24.486,3.860,25.743,5.575,25.745L25.462,25.775C27.177,25.777,28.571,24.525,28.573,22.979L28.600,5.060C28.602,3.514,27.212,2.257,25.497,2.255ZZM10.569,11.193L10.553,21.833L6.824,21.827L6.840,11.187L10.569,11.193ZZM6.845,8.090C6.846,7.306,7.593,6.708,8.711,6.710C9.830,6.711,10.531,7.312,10.573,8.096C10.572,8.880,9.875,9.512,8.707,9.510C7.588,9.508,6.844,8.874,6.845,8.090ZZM24.225,21.853L20.496,21.847C20.496,21.847,20.504,16.662,20.504,16.247C20.506,15.127,19.886,14.006,18.333,13.982L18.283,13.982C16.779,13.979,16.156,15.132,16.154,16.241C16.154,16.751,16.146,21.841,16.146,21.841L12.417,21.835L12.433,11.195L16.162,11.201L16.160,12.635C16.160,12.635,17.361,11.203,19.772,11.206C22.240,11.210,24.238,12.742,24.234,15.839L24.225,21.853ZZ" style="fill: rgb(160, 214, 131); fill-opacity: 1;"/></g></g></g></svg>