<svg xmlns:xlink="http://www.w3.org/1999/xlink" width="33" xmlns="http://www.w3.org/2000/svg" height="33" id="screenshot-67f14c75-fe1d-8052-8002-588290c92efa" viewBox="0 0 33 33" style="-webkit-print-color-adjust: exact;" fill="none" version="1.1"><g id="shape-67f14c75-fe1d-8052-8002-588290c92efa" height="48" width="48" rx="0" ry="0" style="fill: rgb(0, 0, 0);"><g id="shape-67f14c75-fe1d-8052-8002-588290c92eff"><g class="fills" id="fills-67f14c75-fe1d-8052-8002-588290c92eff"><path rx="0" ry="0" d="M4.813,27.500C4.263,27.500,3.781,27.294,3.369,26.881C2.956,26.469,2.750,25.987,2.750,25.438L2.750,7.563C2.750,7.012,2.956,6.531,3.369,6.119C3.781,5.706,4.263,5.500,4.813,5.500L28.188,5.500C28.738,5.500,29.219,5.706,29.631,6.119C30.044,6.531,30.250,7.012,30.250,7.563L30.250,25.438C30.250,25.987,30.044,26.469,29.631,26.881C29.219,27.294,28.738,27.500,28.188,27.500L4.813,27.500ZZM16.500,17.119L4.813,9.453L4.813,25.438L28.188,25.438L28.188,9.453L16.500,17.119ZZM16.500,15.056L28.050,7.563L4.984,7.563L16.500,15.056ZZM4.813,9.453L4.813,7.563L4.813,25.438L4.813,9.453ZZ" style="fill: rgb(16, 79, 158); fill-opacity: 1;"/></g></g></g></svg>