<svg xmlns:xlink="http://www.w3.org/1999/xlink" width="25.096" xmlns="http://www.w3.org/2000/svg" height="25.037" id="screenshot-bfea2e9c-f9c6-8049-8002-5ef03dcfe1b8" viewBox="-0.019 -0.019 25.096 25.037" style="-webkit-print-color-adjust: exact;" fill="none" version="1.1"><g id="shape-bfea2e9c-f9c6-8049-8002-5ef03dcfe1b8" width="50px" height="50px" rx="0" ry="0" style="fill: rgb(0, 0, 0);"><g id="shape-bfea2e9c-f9c6-8049-8002-5ef03dcfe1c0"><g class="fills" id="fills-bfea2e9c-f9c6-8049-8002-5ef03dcfe1c0"><path rx="0" ry="0" d="M12.546,1.000C6.190,0.991,1.012,6.141,1.002,12.483C0.993,18.824,6.156,23.990,12.512,24.000C18.868,24.009,24.047,18.859,24.056,12.517C24.066,6.176,18.903,1.010,12.546,1.000ZZM18.164,10.270C18.169,10.388,18.172,10.508,18.172,10.629C18.166,14.288,15.367,18.504,10.260,18.497C8.693,18.494,7.234,18.034,6.007,17.246C6.224,17.272,6.444,17.285,6.669,17.285C7.970,17.287,9.168,16.847,10.118,16.105C8.903,16.082,7.880,15.278,7.528,14.178C7.697,14.211,7.871,14.229,8.051,14.229C8.304,14.229,8.549,14.196,8.782,14.132C7.513,13.875,6.558,12.756,6.560,11.413C6.560,11.401,6.560,11.390,6.560,11.378C6.934,11.586,7.361,11.712,7.817,11.727C7.072,11.228,6.584,10.381,6.585,9.420C6.586,8.912,6.723,8.437,6.963,8.027C8.330,9.705,10.374,10.810,12.681,10.930C12.634,10.727,12.609,10.516,12.609,10.299C12.611,8.769,13.856,7.531,15.390,7.533C16.188,7.534,16.909,7.872,17.414,8.411C18.046,8.288,18.642,8.058,19.178,7.742C18.970,8.388,18.529,8.930,17.955,9.272C18.517,9.205,19.052,9.058,19.551,8.838C19.178,9.393,18.707,9.881,18.164,10.270ZZ" style="fill: rgb(121, 173, 211); fill-opacity: 1;"/></g></g></g></svg>